<?xml version="1.0" encoding="UTF-8"?>
<svg width="48px" height="48px" viewBox="0 0 48 48" version="1.1" xmlns="http://www.w3.org/2000/svg" xmlns:xlink="http://www.w3.org/1999/xlink">
    <!-- Generator: Sketch 58 (84663) - https://sketch.com -->
    <title>btn_back_home@2x</title>
    <desc>Created with Sketch.</desc>
    <g id="Page-1" stroke="none" stroke-width="1" fill="none" fill-rule="evenodd">
        <g id="成功" transform="translate(-88.000000, -56.000000)" fill="#ffffff" fill-rule="nonzero">
            <g id="返回首页" transform="translate(88.000000, 56.000000)">
                <g id="Group" transform="translate(4.000000, 5.000000)">
                    <g id="编组-2">
                        <path d="M17.8229478,0.677799062 C18.7850762,-0.225933021 20.2840248,-0.225933021 21.2461532,0.677799062 L21.2461532,0.677799062 L38.596058,16.9746536 C39.1998823,17.5418288 39.2295922,18.4911115 38.662417,19.0949358 C38.0952417,19.69876 37.1459591,19.72847 36.5421348,19.1612947 L36.5421348,19.1612947 L34.438,17.185 L34.4387253,34.6149712 C34.4387253,35.9404546 33.4071894,37.0250099 32.103101,37.1096536 L31.9387253,37.1149712 L24.0012253,37.1149712 C22.6205134,37.1149712 21.5012253,35.9956831 21.5012253,34.6149712 L21.5012253,34.6149712 L21.5012253,28.1331597 L17.4426315,28.1331597 L17.4426315,34.6149712 C17.4426315,35.9956831 16.3233434,37.1149712 14.9426315,37.1149712 L14.9426315,37.1149712 L6.94580538,37.1149712 C5.5650935,37.1149712 4.44580538,35.9956831 4.44580538,34.6149712 L4.44580538,34.6149712 L4.445,17.358 L2.5269662,19.1612947 C1.96088095,19.6930215 1.09117015,19.7001422 0.517329582,19.2014194 L0.406684033,19.0949358 C-0.160491203,18.4911115 -0.130781287,17.5418288 0.473042987,16.9746536 L0.473042987,16.9746536 Z M19.5345505,3.18598362 L7.445,14.54 L7.44580538,34.1149712 L14.4426315,34.1149712 L14.4426315,27.6331597 C14.4426315,26.2524478 15.5619197,25.1331597 16.9426315,25.1331597 L16.9426315,25.1331597 L22.0012253,25.1331597 C23.3819372,25.1331597 24.5012253,26.2524478 24.5012253,27.6331597 L24.5012253,27.6331597 L24.5012253,34.1149712 L31.4387253,34.1149712 L31.438,14.367 L19.5345505,3.18598362 Z" fill="#000000"  id="形状结合"></path>
                    </g>
                </g>
            </g>
        </g>
    </g>
</svg>
